# xmcd CD database file
#
# Track frame offsets:
#	150
#	17924
#	31782
#	50189
#	73083
#	93582
#	114980
#	131559
#	152258
#	167035
#	189072
#	207691
#	223733
#	236776
#	251834
#	271542
#	288213
#	310425
#
# Disc length: 4442 seconds
#
# Revision: 0
# Processed by: cddbd v1.4PL0 Copyright (c) Steve Scherf et al.
# Submitted via: CDex 1.50
#
DISCID=05115812
DTITLE=Astra Zeneca - Symbicort Salsa Fever Night
DYEAR=1900
DGENRE=Salsa
TTITLE0=SALSABOR N°1 - Salsa Sabor - salsa
TTITLE1=Natalia Oreiro - Que si, que si - samba
TTITLE2=Gloria Estefan - Sólo Por Tu Amor - cha cha cha
TTITLE3=Jesus I Tico Su Orkestra 22o - Tu sin mi - rumba
TTITLE4=Yuri Buenaventura - Salsa - salsa
TTITLE5=Omar Chocolate Y Su Salsa Loca - Milagro 1 - merengue
TTITLE6=Giants of Latin - Tic tic tic - samba
TTITLE7=Celia Cruz and Ray Barretto - Bambaraka Tunga - salsa
TTITLE8=The cambo craze - De Phazz Pat Appleton
TTITLE9=Eddy Herrera - Su ti vas - merengue
TTITLE10=Jennifer Lopez  - Ain´t It Funny - samba
TTITLE11=Natalia Oreiro - Y te vas conmigo - cha cha cha
TTITLE12=Giants of Latin - Caravan - mambo
TTITLE13=Gloria Estefan - Tengo Que Decirte Algo - rumba
TTITLE14=Guayamuri - Bailar Contigo - cha cha cha
TTITLE15=Claudia Crystal - Salsa comme l'amour - samba
TTITLE16=Celia Cruz and Ray Barretto - En que quedamos - salsa
TTITLE17=Jennifer Lopez - No me ames - salsa
EXTD=
EXTT0=
EXTT1=
EXTT2=
EXTT3=
EXTT4=
EXTT5=
EXTT6=
EXTT7=
EXTT8=
EXTT9=
EXTT10=
EXTT11=
EXTT12=
EXTT13=
EXTT14=
EXTT15=
EXTT16=
EXTT17=
PLAYORDER=
